%TF.GenerationSoftware,KiCad,Pcbnew,9.0.3*%
%TF.CreationDate,2025-11-21T22:03:05+01:00*%
%TF.ProjectId,Gaus-Beschleuniger,47617573-2d42-4657-9363-686c65756e69,v1.0.0*%
%TF.SameCoordinates,Original*%
%TF.FileFunction,Soldermask,Bot*%
%TF.FilePolarity,Negative*%
%FSLAX46Y46*%
G04 Gerber Fmt 4.6, Leading zero omitted, Abs format (unit mm)*
G04 Created by KiCad (PCBNEW 9.0.3) date 2025-11-21 22:03:05*
%MOMM*%
%LPD*%
G01*
G04 APERTURE LIST*
G04 Aperture macros list*
%AMRoundRect*
0 Rectangle with rounded corners*
0 $1 Rounding radius*
0 $2 $3 $4 $5 $6 $7 $8 $9 X,Y pos of 4 corners*
0 Add a 4 corners polygon primitive as box body*
4,1,4,$2,$3,$4,$5,$6,$7,$8,$9,$2,$3,0*
0 Add four circle primitives for the rounded corners*
1,1,$1+$1,$2,$3*
1,1,$1+$1,$4,$5*
1,1,$1+$1,$6,$7*
1,1,$1+$1,$8,$9*
0 Add four rect primitives between the rounded corners*
20,1,$1+$1,$2,$3,$4,$5,0*
20,1,$1+$1,$4,$5,$6,$7,0*
20,1,$1+$1,$6,$7,$8,$9,0*
20,1,$1+$1,$8,$9,$2,$3,0*%
G04 Aperture macros list end*
%ADD10C,3.200000*%
%ADD11RoundRect,0.250000X1.050000X1.050000X-1.050000X1.050000X-1.050000X-1.050000X1.050000X-1.050000X0*%
%ADD12C,2.600000*%
%ADD13RoundRect,0.249600X0.550400X-0.750400X0.550400X0.750400X-0.550400X0.750400X-0.550400X-0.750400X0*%
%ADD14O,1.600000X2.000000*%
%ADD15C,1.600000*%
%ADD16RoundRect,0.250000X-0.550000X0.550000X-0.550000X-0.550000X0.550000X-0.550000X0.550000X0.550000X0*%
%ADD17C,4.300000*%
%ADD18C,2.400000*%
%ADD19RoundRect,0.250000X-1.125000X1.125000X-1.125000X-1.125000X1.125000X-1.125000X1.125000X1.125000X0*%
%ADD20C,2.750000*%
%ADD21R,1.800000X1.800000*%
%ADD22C,1.800000*%
%ADD23R,1.700000X1.700000*%
%ADD24C,1.700000*%
%ADD25RoundRect,0.250000X0.550000X-0.550000X0.550000X0.550000X-0.550000X0.550000X-0.550000X-0.550000X0*%
%ADD26R,3.000000X3.000000*%
%ADD27C,3.000000*%
%ADD28RoundRect,0.250000X-1.050000X1.050000X-1.050000X-1.050000X1.050000X-1.050000X1.050000X1.050000X0*%
%ADD29R,1.600000X1.600000*%
%ADD30O,1.600000X1.600000*%
%ADD31RoundRect,0.250000X-1.750000X1.750000X-1.750000X-1.750000X1.750000X-1.750000X1.750000X1.750000X0*%
%ADD32C,4.000000*%
%ADD33RoundRect,0.250000X1.750000X-1.750000X1.750000X1.750000X-1.750000X1.750000X-1.750000X-1.750000X0*%
%ADD34C,6.000000*%
%ADD35RoundRect,1.500000X1.500000X-1.500000X1.500000X1.500000X-1.500000X1.500000X-1.500000X-1.500000X0*%
%ADD36C,3.600000*%
%ADD37R,2.500000X4.500000*%
%ADD38O,2.500000X4.500000*%
G04 APERTURE END LIST*
D10*
%TO.C,H8*%
X287500000Y-160500000D03*
%TD*%
D11*
%TO.C,D18*%
X95120000Y-110000000D03*
D12*
X79880000Y-110000000D03*
%TD*%
D13*
%TO.C,Q6*%
X272730000Y-157935000D03*
D14*
X275270000Y-157935000D03*
%TD*%
D15*
%TO.C,R4*%
X161250000Y-136170000D03*
X161250000Y-146330000D03*
%TD*%
D16*
%TO.C,C24*%
X120000000Y-96067621D03*
D15*
X120000000Y-98567621D03*
%TD*%
D17*
%TO.C,H1*%
X55000000Y-90000000D03*
%TD*%
D18*
%TO.C,R23*%
X282980000Y-201500000D03*
X222020000Y-201500000D03*
%TD*%
D19*
%TO.C,J1*%
X179500000Y-147300000D03*
D20*
X179500000Y-152700000D03*
%TD*%
D21*
%TO.C,D10*%
X233730000Y-142500000D03*
D22*
X236270000Y-142500000D03*
%TD*%
D15*
%TO.C,R18*%
X236580000Y-136500000D03*
X226420000Y-136500000D03*
%TD*%
D23*
%TO.C,SW6*%
X116750000Y-199250000D03*
D24*
X123250000Y-199250000D03*
X116750000Y-203750000D03*
X123250000Y-203750000D03*
%TD*%
D15*
%TO.C,R19*%
X223250000Y-136170000D03*
X223250000Y-146330000D03*
%TD*%
D10*
%TO.C,H5*%
X152500000Y-139500000D03*
%TD*%
D21*
%TO.C,D20*%
X90000000Y-178725000D03*
D22*
X90000000Y-181265000D03*
%TD*%
D15*
%TO.C,R9*%
X174580000Y-136500000D03*
X164420000Y-136500000D03*
%TD*%
D25*
%TO.C,C25*%
X114250000Y-167682380D03*
D15*
X114250000Y-165182380D03*
%TD*%
D23*
%TO.C,J5*%
X228725000Y-96500000D03*
D24*
X231265000Y-96500000D03*
%TD*%
D26*
%TO.C,SW2*%
X72500000Y-129700000D03*
D27*
X72500000Y-125000000D03*
X72500000Y-120300000D03*
%TD*%
D28*
%TO.C,J7*%
X57077500Y-122455000D03*
D12*
X57077500Y-127535000D03*
%TD*%
D21*
%TO.C,D7*%
X171730000Y-142500000D03*
D22*
X174270000Y-142500000D03*
%TD*%
D29*
%TO.C,A1*%
X124050000Y-141890000D03*
D30*
X121510000Y-141890000D03*
X118970000Y-141890000D03*
X116430000Y-141890000D03*
X113890000Y-141890000D03*
X111350000Y-141890000D03*
X108810000Y-141890000D03*
X106270000Y-141890000D03*
X103730000Y-141890000D03*
X101190000Y-141890000D03*
X98650000Y-141890000D03*
X96110000Y-141890000D03*
X93570000Y-141890000D03*
X91030000Y-141890000D03*
X88490000Y-141890000D03*
X88490000Y-157130000D03*
X91030000Y-157130000D03*
X93570000Y-157130000D03*
X96110000Y-157130000D03*
X98650000Y-157130000D03*
X101190000Y-157130000D03*
X103730000Y-157130000D03*
X106270000Y-157130000D03*
X108810000Y-157130000D03*
X111350000Y-157130000D03*
X113890000Y-157130000D03*
X116430000Y-157130000D03*
X118970000Y-157130000D03*
X121510000Y-157130000D03*
X124050000Y-157130000D03*
%TD*%
D21*
%TO.C,D19*%
X92725000Y-117500000D03*
D22*
X95265000Y-117500000D03*
%TD*%
D10*
%TO.C,H6*%
X152500000Y-160500000D03*
%TD*%
D23*
%TO.C,SW5*%
X101750000Y-199250000D03*
D24*
X108250000Y-199250000D03*
X101750000Y-203750000D03*
X108250000Y-203750000D03*
%TD*%
D21*
%TO.C,D9*%
X213775000Y-163500000D03*
D22*
X211235000Y-163500000D03*
%TD*%
D23*
%TO.C,J4*%
X220225000Y-96500000D03*
D24*
X222765000Y-96500000D03*
%TD*%
D21*
%TO.C,D21*%
X105000000Y-178725000D03*
D22*
X105000000Y-181265000D03*
%TD*%
D23*
%TO.C,J2*%
X207725000Y-96500000D03*
D24*
X210265000Y-96500000D03*
%TD*%
D21*
%TO.C,D3*%
X103275000Y-105500000D03*
D22*
X100735000Y-105500000D03*
%TD*%
D21*
%TO.C,D11*%
X235775000Y-163500000D03*
D22*
X233235000Y-163500000D03*
%TD*%
D13*
%TO.C,Q4*%
X210730000Y-157935000D03*
D14*
X213270000Y-157935000D03*
%TD*%
D17*
%TO.C,H3*%
X290000000Y-90000000D03*
%TD*%
D23*
%TO.C,J10*%
X86190000Y-188500000D03*
D24*
X88730000Y-188500000D03*
X91270000Y-188500000D03*
X93810000Y-188500000D03*
%TD*%
D23*
%TO.C,J3*%
X199225000Y-96500000D03*
D24*
X201765000Y-96500000D03*
%TD*%
D23*
%TO.C,J11*%
X102460000Y-188000000D03*
D24*
X105000000Y-188000000D03*
X107540000Y-188000000D03*
%TD*%
D13*
%TO.C,Q3*%
X171730000Y-157935000D03*
D14*
X174270000Y-157935000D03*
%TD*%
D23*
%TO.C,SW4*%
X86750000Y-199250000D03*
D24*
X93250000Y-199250000D03*
X86750000Y-203750000D03*
X93250000Y-203750000D03*
%TD*%
D10*
%TO.C,H7*%
X287500000Y-139500000D03*
%TD*%
D16*
%TO.C,C23*%
X113000000Y-96067620D03*
D15*
X113000000Y-98567620D03*
%TD*%
D21*
%TO.C,D22*%
X120000000Y-178725000D03*
D22*
X120000000Y-181265000D03*
%TD*%
D17*
%TO.C,H4*%
X290000000Y-210000000D03*
%TD*%
D23*
%TO.C,J9*%
X84960000Y-104000000D03*
D24*
X87500000Y-104000000D03*
X90040000Y-104000000D03*
%TD*%
D21*
%TO.C,D2*%
X67725000Y-139500000D03*
D22*
X70265000Y-139500000D03*
%TD*%
D17*
%TO.C,H2*%
X55000000Y-210000000D03*
%TD*%
D23*
%TO.C,J12*%
X79975000Y-173800000D03*
D24*
X79975000Y-171260000D03*
X79975000Y-168720000D03*
X79975000Y-166180000D03*
%TD*%
D23*
%TO.C,J13*%
X117460000Y-188000000D03*
D24*
X120000000Y-188000000D03*
X122540000Y-188000000D03*
%TD*%
D21*
%TO.C,D8*%
X210730000Y-142500000D03*
D22*
X213270000Y-142500000D03*
%TD*%
D13*
%TO.C,Q5*%
X233730000Y-157935000D03*
D14*
X236270000Y-157935000D03*
%TD*%
D23*
%TO.C,J8*%
X158190000Y-90750000D03*
D24*
X160730000Y-90750000D03*
X163270000Y-90750000D03*
X165810000Y-90750000D03*
%TD*%
D21*
%TO.C,D17*%
X92725000Y-132500000D03*
D22*
X95265000Y-132500000D03*
%TD*%
D26*
%TO.C,SW1*%
X85000000Y-120300000D03*
D27*
X85000000Y-125000000D03*
X85000000Y-129700000D03*
%TD*%
D21*
%TO.C,D6*%
X173775000Y-163500000D03*
D22*
X171235000Y-163500000D03*
%TD*%
D19*
%TO.C,J6*%
X241500000Y-147300000D03*
D20*
X241500000Y-152700000D03*
%TD*%
D18*
%TO.C,R8*%
X147020000Y-201500000D03*
X207980000Y-201500000D03*
%TD*%
D21*
%TO.C,D13*%
X275775000Y-163500000D03*
D22*
X273235000Y-163500000D03*
%TD*%
D21*
%TO.C,D12*%
X272730000Y-142500000D03*
D22*
X275270000Y-142500000D03*
%TD*%
D31*
%TO.C,C2*%
X196500000Y-178569501D03*
D32*
X196500000Y-188569501D03*
%TD*%
D33*
%TO.C,C3*%
X159000000Y-121430499D03*
D32*
X159000000Y-111430499D03*
%TD*%
D31*
%TO.C,C6*%
X271500000Y-178569501D03*
D32*
X271500000Y-188569501D03*
%TD*%
D33*
%TO.C,C7*%
X234000000Y-121430499D03*
D32*
X234000000Y-111430499D03*
%TD*%
D34*
%TO.C,BT1*%
X57500000Y-106400000D03*
D35*
X57500000Y-113600000D03*
%TD*%
D36*
%TO.C,D15*%
X253000000Y-142030000D03*
D37*
X258450000Y-161890000D03*
D38*
X253000000Y-161890000D03*
X247550000Y-161890000D03*
%TD*%
D33*
%TO.C,C5*%
X271500000Y-121430499D03*
D32*
X271500000Y-111430499D03*
%TD*%
D31*
%TO.C,C4*%
X159000000Y-178569501D03*
D32*
X159000000Y-188569501D03*
%TD*%
D31*
%TO.C,C8*%
X234000000Y-178569501D03*
D32*
X234000000Y-188569501D03*
%TD*%
D36*
%TO.C,D4*%
X191000000Y-142030000D03*
D37*
X196450000Y-161890000D03*
D38*
X191000000Y-161890000D03*
X185550000Y-161890000D03*
%TD*%
D33*
%TO.C,C1*%
X196500000Y-121430499D03*
D32*
X196500000Y-111430499D03*
%TD*%
M02*
