%TF.GenerationSoftware,KiCad,Pcbnew,9.0.3*%
%TF.CreationDate,2025-11-21T22:03:05+01:00*%
%TF.ProjectId,Gaus-Beschleuniger,47617573-2d42-4657-9363-686c65756e69,v1.0.0*%
%TF.SameCoordinates,Original*%
%TF.FileFunction,Paste,Top*%
%TF.FilePolarity,Positive*%
%FSLAX46Y46*%
G04 Gerber Fmt 4.6, Leading zero omitted, Abs format (unit mm)*
G04 Created by KiCad (PCBNEW 9.0.3) date 2025-11-21 22:03:05*
%MOMM*%
%LPD*%
G01*
G04 APERTURE LIST*
G04 Aperture macros list*
%AMRoundRect*
0 Rectangle with rounded corners*
0 $1 Rounding radius*
0 $2 $3 $4 $5 $6 $7 $8 $9 X,Y pos of 4 corners*
0 Add a 4 corners polygon primitive as box body*
4,1,4,$2,$3,$4,$5,$6,$7,$8,$9,$2,$3,0*
0 Add four circle primitives for the rounded corners*
1,1,$1+$1,$2,$3*
1,1,$1+$1,$4,$5*
1,1,$1+$1,$6,$7*
1,1,$1+$1,$8,$9*
0 Add four rect primitives between the rounded corners*
20,1,$1+$1,$2,$3,$4,$5,0*
20,1,$1+$1,$4,$5,$6,$7,0*
20,1,$1+$1,$6,$7,$8,$9,0*
20,1,$1+$1,$8,$9,$2,$3,0*%
G04 Aperture macros list end*
%ADD10RoundRect,0.250000X0.900000X-1.500000X0.900000X1.500000X-0.900000X1.500000X-0.900000X-1.500000X0*%
%ADD11RoundRect,0.250000X0.625000X-0.400000X0.625000X0.400000X-0.625000X0.400000X-0.625000X-0.400000X0*%
%ADD12RoundRect,0.250000X-0.650000X0.412500X-0.650000X-0.412500X0.650000X-0.412500X0.650000X0.412500X0*%
%ADD13RoundRect,0.250000X0.350000X0.450000X-0.350000X0.450000X-0.350000X-0.450000X0.350000X-0.450000X0*%
%ADD14RoundRect,0.250000X-0.350000X-0.450000X0.350000X-0.450000X0.350000X0.450000X-0.350000X0.450000X0*%
%ADD15RoundRect,0.250000X0.337500X0.475000X-0.337500X0.475000X-0.337500X-0.475000X0.337500X-0.475000X0*%
%ADD16RoundRect,0.250000X-0.337500X-0.475000X0.337500X-0.475000X0.337500X0.475000X-0.337500X0.475000X0*%
%ADD17RoundRect,0.250000X0.450000X-0.350000X0.450000X0.350000X-0.450000X0.350000X-0.450000X-0.350000X0*%
%ADD18RoundRect,0.237500X-0.250000X-0.237500X0.250000X-0.237500X0.250000X0.237500X-0.250000X0.237500X0*%
%ADD19RoundRect,0.237500X0.237500X-0.250000X0.237500X0.250000X-0.237500X0.250000X-0.237500X-0.250000X0*%
%ADD20RoundRect,0.250000X-0.450000X0.350000X-0.450000X-0.350000X0.450000X-0.350000X0.450000X0.350000X0*%
%ADD21RoundRect,0.250000X0.650000X-0.412500X0.650000X0.412500X-0.650000X0.412500X-0.650000X-0.412500X0*%
%ADD22RoundRect,0.150000X0.512500X0.150000X-0.512500X0.150000X-0.512500X-0.150000X0.512500X-0.150000X0*%
%ADD23RoundRect,0.225000X0.225000X0.375000X-0.225000X0.375000X-0.225000X-0.375000X0.225000X-0.375000X0*%
%ADD24RoundRect,0.375000X0.625000X0.375000X-0.625000X0.375000X-0.625000X-0.375000X0.625000X-0.375000X0*%
%ADD25RoundRect,0.500000X0.500000X1.400000X-0.500000X1.400000X-0.500000X-1.400000X0.500000X-1.400000X0*%
%ADD26RoundRect,0.250000X-0.412500X-0.650000X0.412500X-0.650000X0.412500X0.650000X-0.412500X0.650000X0*%
%ADD27RoundRect,0.237500X0.237500X-0.300000X0.237500X0.300000X-0.237500X0.300000X-0.237500X-0.300000X0*%
%ADD28RoundRect,0.087500X-0.725000X-0.087500X0.725000X-0.087500X0.725000X0.087500X-0.725000X0.087500X0*%
%ADD29RoundRect,0.150000X-0.825000X-0.150000X0.825000X-0.150000X0.825000X0.150000X-0.825000X0.150000X0*%
%ADD30R,5.100000X2.350000*%
%ADD31RoundRect,0.250000X-0.900000X1.000000X-0.900000X-1.000000X0.900000X-1.000000X0.900000X1.000000X0*%
%ADD32R,1.520000X2.920000*%
%ADD33RoundRect,0.375000X-0.625000X-0.375000X0.625000X-0.375000X0.625000X0.375000X-0.625000X0.375000X0*%
%ADD34RoundRect,0.500000X-0.500000X-1.400000X0.500000X-1.400000X0.500000X1.400000X-0.500000X1.400000X0*%
G04 APERTURE END LIST*
D10*
%TO.C,D16*%
X150000000Y-101450000D03*
X150000000Y-96050000D03*
%TD*%
D11*
%TO.C,R26*%
X113500000Y-118550000D03*
X113500000Y-115450000D03*
%TD*%
D12*
%TO.C,C21*%
X103750000Y-115437500D03*
X103750000Y-118562500D03*
%TD*%
D13*
%TO.C,R36*%
X120000000Y-160500000D03*
X118000000Y-160500000D03*
%TD*%
D14*
%TO.C,R14*%
X229000000Y-142500000D03*
X231000000Y-142500000D03*
%TD*%
D13*
%TO.C,R42*%
X93500000Y-123000000D03*
X91500000Y-123000000D03*
%TD*%
D15*
%TO.C,C13*%
X64037500Y-145500000D03*
X61962500Y-145500000D03*
%TD*%
D10*
%TO.C,D5*%
X212500000Y-119200000D03*
X212500000Y-113800000D03*
%TD*%
D16*
%TO.C,C14*%
X61962500Y-148000000D03*
X64037500Y-148000000D03*
%TD*%
D17*
%TO.C,R40*%
X122500000Y-139000000D03*
X122500000Y-137000000D03*
%TD*%
D18*
%TO.C,R29*%
X120337500Y-112500000D03*
X122162500Y-112500000D03*
%TD*%
D12*
%TO.C,C20*%
X106500000Y-115437500D03*
X106500000Y-118562500D03*
%TD*%
D19*
%TO.C,R28*%
X117750000Y-109162500D03*
X117750000Y-107337500D03*
%TD*%
D20*
%TO.C,R31*%
X101250000Y-116500000D03*
X101250000Y-118500000D03*
%TD*%
D21*
%TO.C,C12*%
X59500000Y-140562500D03*
X59500000Y-137437500D03*
%TD*%
D13*
%TO.C,R24*%
X244000000Y-162000000D03*
X242000000Y-162000000D03*
%TD*%
D10*
%TO.C,D25*%
X218000000Y-119200000D03*
X218000000Y-113800000D03*
%TD*%
D20*
%TO.C,R3*%
X161250000Y-149000000D03*
X161250000Y-151000000D03*
%TD*%
%TO.C,R20*%
X223250000Y-149000000D03*
X223250000Y-151000000D03*
%TD*%
D22*
%TO.C,U1*%
X64137500Y-143450000D03*
X64137500Y-142500000D03*
X64137500Y-141550000D03*
X61862500Y-141550000D03*
X61862500Y-142500000D03*
X61862500Y-143450000D03*
%TD*%
D13*
%TO.C,R38*%
X106000000Y-160500000D03*
X104000000Y-160500000D03*
%TD*%
%TO.C,R17*%
X280000000Y-158000000D03*
X278000000Y-158000000D03*
%TD*%
D23*
%TO.C,D24*%
X207150000Y-210000000D03*
X203850000Y-210000000D03*
%TD*%
D13*
%TO.C,R25*%
X68500000Y-145500000D03*
X66500000Y-145500000D03*
%TD*%
D18*
%TO.C,R27*%
X120337500Y-114250000D03*
X122162500Y-114250000D03*
%TD*%
D24*
%TO.C,Q1*%
X208150000Y-191800000D03*
D25*
X201850000Y-189500000D03*
D24*
X208150000Y-187200000D03*
%TD*%
D14*
%TO.C,R33*%
X109000000Y-160500000D03*
X111000000Y-160500000D03*
%TD*%
D16*
%TO.C,C15*%
X61962500Y-150500000D03*
X64037500Y-150500000D03*
%TD*%
D14*
%TO.C,R15*%
X229000000Y-158000000D03*
X231000000Y-158000000D03*
%TD*%
D13*
%TO.C,R10*%
X182000000Y-162000000D03*
X180000000Y-162000000D03*
%TD*%
D16*
%TO.C,C9*%
X61962500Y-139500000D03*
X64037500Y-139500000D03*
%TD*%
D12*
%TO.C,C19*%
X109250000Y-115437500D03*
X109250000Y-118562500D03*
%TD*%
D26*
%TO.C,C18*%
X111937500Y-102750000D03*
X115062500Y-102750000D03*
%TD*%
D13*
%TO.C,R13*%
X218000000Y-158000000D03*
X216000000Y-158000000D03*
%TD*%
D27*
%TO.C,C22*%
X119750000Y-109112500D03*
X119750000Y-107387500D03*
%TD*%
D13*
%TO.C,R32*%
X93500000Y-127000000D03*
X91500000Y-127000000D03*
%TD*%
D14*
%TO.C,R1*%
X66500000Y-150500000D03*
X68500000Y-150500000D03*
%TD*%
D13*
%TO.C,R6*%
X196000000Y-210000000D03*
X194000000Y-210000000D03*
%TD*%
%TO.C,R2*%
X68500000Y-148000000D03*
X66500000Y-148000000D03*
%TD*%
D28*
%TO.C,U2*%
X111387500Y-111000000D03*
X111387500Y-111500000D03*
X111387500Y-112000000D03*
X111387500Y-112500000D03*
X111387500Y-113000000D03*
X115612500Y-113000000D03*
X115612500Y-112500000D03*
X115612500Y-112000000D03*
X115612500Y-111500000D03*
X115612500Y-111000000D03*
%TD*%
D21*
%TO.C,C10*%
X53500000Y-140562500D03*
X53500000Y-137437500D03*
%TD*%
%TO.C,C11*%
X56500000Y-140562500D03*
X56500000Y-137437500D03*
%TD*%
D29*
%TO.C,Q9*%
X117025000Y-116345000D03*
X117025000Y-117615000D03*
X117025000Y-118885000D03*
X117025000Y-120155000D03*
X121975000Y-120155000D03*
X121975000Y-118885000D03*
X121975000Y-117615000D03*
X121975000Y-116345000D03*
%TD*%
D14*
%TO.C,R35*%
X104000000Y-184500000D03*
X106000000Y-184500000D03*
%TD*%
D20*
%TO.C,R37*%
X127500000Y-137000000D03*
X127500000Y-139000000D03*
%TD*%
D14*
%TO.C,R11*%
X167000000Y-158000000D03*
X169000000Y-158000000D03*
%TD*%
D20*
%TO.C,R39*%
X125000000Y-137000000D03*
X125000000Y-139000000D03*
%TD*%
D14*
%TO.C,R30*%
X95500000Y-105500000D03*
X97500000Y-105500000D03*
%TD*%
%TO.C,R34*%
X89000000Y-185000000D03*
X91000000Y-185000000D03*
%TD*%
D13*
%TO.C,R12*%
X218000000Y-142500000D03*
X216000000Y-142500000D03*
%TD*%
D30*
%TO.C,L1*%
X57000000Y-143925000D03*
X57000000Y-148075000D03*
%TD*%
D13*
%TO.C,R7*%
X200500000Y-210000000D03*
X198500000Y-210000000D03*
%TD*%
D12*
%TO.C,C26*%
X150000000Y-106937500D03*
X150000000Y-110062500D03*
%TD*%
D31*
%TO.C,D1*%
X65500000Y-122850000D03*
X65500000Y-127150000D03*
%TD*%
D32*
%TO.C,TR1*%
X142500000Y-96170000D03*
X138750000Y-96170000D03*
X135000000Y-96170000D03*
X131250000Y-96170000D03*
X127500000Y-96170000D03*
X127500000Y-118830000D03*
X131250000Y-118830000D03*
X135000000Y-118830000D03*
X138750000Y-118830000D03*
X142500000Y-118830000D03*
%TD*%
D14*
%TO.C,R41*%
X119000000Y-184500000D03*
X121000000Y-184500000D03*
%TD*%
%TO.C,R5*%
X167000000Y-142500000D03*
X169000000Y-142500000D03*
%TD*%
D26*
%TO.C,C17*%
X111937500Y-105500000D03*
X115062500Y-105500000D03*
%TD*%
%TO.C,C16*%
X111937500Y-108250000D03*
X115062500Y-108250000D03*
%TD*%
D33*
%TO.C,Q2*%
X221850000Y-187200000D03*
D34*
X228150000Y-189500000D03*
D33*
X221850000Y-191800000D03*
%TD*%
D13*
%TO.C,R16*%
X280000000Y-142500000D03*
X278000000Y-142500000D03*
%TD*%
M02*
