M48
; DRILL file {KiCad 9.0.3} date 2025-11-21T22:03:19+0100
; FORMAT={-:-/ absolute / metric / decimal}
; #@! TF.CreationDate,2025-11-21T22:03:19+01:00
; #@! TF.GenerationSoftware,Kicad,Pcbnew,9.0.3
; #@! TF.FileFunction,Plated,1,2,PTH
FMAT,2
METRIC
; #@! TA.AperFunction,Plated,PTH,ViaDrill
T1C0.300
; #@! TA.AperFunction,Plated,PTH,ComponentDrill
T2C0.800
; #@! TA.AperFunction,Plated,PTH,ComponentDrill
T3C0.900
; #@! TA.AperFunction,Plated,PTH,ComponentDrill
T4C1.000
; #@! TA.AperFunction,Plated,PTH,ComponentDrill
T5C1.200
; #@! TA.AperFunction,Plated,PTH,ComponentDrill
T6C1.300
; #@! TA.AperFunction,Plated,PTH,ComponentDrill
T7C1.500
; #@! TA.AperFunction,Plated,PTH,ComponentDrill
T8C1.750
; #@! TA.AperFunction,Plated,PTH,ComponentDrill
T9C2.000
; #@! TA.AperFunction,Plated,PTH,ComponentDrill
T10C4.500
%
G90
G05
T1
X53.25Y-113.5
X53.5Y-136.25
X54.0Y-110.75
X54.0Y-117.0
X55.0Y-100.0
X55.0Y-120.0
X55.0Y-127.5
X55.0Y-130.0
X55.0Y-139.0
X55.0Y-150.25
X55.0Y-160.0
X55.0Y-170.0
X55.0Y-180.0
X55.0Y-190.0
X55.0Y-200.0
X56.5Y-136.25
X57.0Y-125.25
X57.0Y-129.75
X57.5Y-118.0
X58.0Y-139.0
X59.0Y-127.5
X59.5Y-136.25
X61.0Y-117.0
X61.5Y-113.75
X65.0Y-90.0
X65.0Y-100.0
X65.0Y-130.0
X65.0Y-148.0
X65.0Y-150.5
X65.0Y-158.25
X65.0Y-161.25
X65.0Y-170.0
X65.0Y-180.0
X65.0Y-190.0
X65.0Y-200.0
X65.0Y-210.0
X65.5Y-139.5
X65.5Y-142.5
X65.75Y-110.0
X65.75Y-120.0
X66.5Y-144.25
X73.0Y-140.0
X73.0Y-150.0
X74.0Y-158.25
X74.0Y-161.25
X74.0Y-170.0
X74.0Y-180.0
X75.0Y-90.0
X75.0Y-100.0
X75.0Y-110.0
X75.0Y-120.0
X75.0Y-158.25
X75.0Y-161.25
X75.0Y-190.0
X75.0Y-200.0
X75.0Y-210.0
X76.0Y-140.0
X76.0Y-158.25
X76.0Y-161.25
X77.0Y-158.25
X77.0Y-161.25
X77.25Y-120.0
X77.75Y-130.0
X78.0Y-158.25
X78.0Y-161.25
X78.75Y-136.0
X79.0Y-122.0
X79.0Y-128.0
X79.0Y-150.0
X79.0Y-158.25
X79.0Y-161.25
X79.0Y-180.0
X80.0Y-120.0
X80.0Y-130.0
X81.0Y-140.0
X82.75Y-111.75
X83.25Y-109.0
X84.0Y-186.25
X84.75Y-100.75
X85.0Y-90.0
X85.0Y-136.0
X85.0Y-141.0
X85.0Y-150.0
X85.0Y-158.25
X85.0Y-161.25
X85.0Y-170.0
X85.0Y-180.0
X85.0Y-200.0
X85.0Y-210.0
X85.5Y-110.25
X87.25Y-131.0
X87.5Y-119.0
X88.0Y-125.0
X91.5Y-193.5
X92.5Y-186.5
X94.0Y-120.0
X94.0Y-180.0
X94.25Y-130.0
X94.5Y-100.0
X94.75Y-156.0
X95.0Y-90.0
X95.0Y-136.0
X95.0Y-141.0
X95.0Y-150.0
X95.0Y-161.0
X95.0Y-170.0
X95.0Y-186.5
X95.0Y-190.0
X95.0Y-200.0
X95.0Y-210.0
X95.5Y-125.5
X96.0Y-175.0
X96.0Y-180.0
X96.25Y-130.0
X96.5Y-100.0
X96.5Y-113.5
X96.5Y-120.0
X97.25Y-110.0
X97.5Y-124.5
X98.5Y-124.5
X98.5Y-126.5
X99.25Y-165.0
X99.75Y-114.75
X100.25Y-166.0
X100.5Y-160.75
X101.25Y-120.0
X102.5Y-114.0
X103.0Y-110.0
X103.0Y-112.0
X103.5Y-180.0
X103.75Y-120.0
X103.75Y-190.25
X104.5Y-165.0
X105.0Y-90.0
X105.0Y-100.0
X105.0Y-110.0
X105.0Y-130.0
X105.0Y-140.0
X105.0Y-150.0
X105.0Y-162.0
X105.0Y-170.0
X105.0Y-200.0
X105.0Y-210.0
X106.0Y-163.5
X106.5Y-120.0
X107.5Y-193.5
X109.0Y-191.5
X109.0Y-193.5
X109.25Y-120.0
X111.0Y-113.75
X111.0Y-134.5
X112.0Y-113.75
X112.25Y-115.5
X112.5Y-140.0
X112.75Y-166.0
X113.0Y-136.5
X113.0Y-164.0
X113.5Y-114.25
X113.5Y-116.5
X114.0Y-102.75
X114.0Y-105.5
X114.0Y-108.25
X114.25Y-98.5
X114.25Y-99.25
X114.5Y-189.5
X114.75Y-115.5
X115.0Y-90.0
X115.0Y-100.0
X115.0Y-120.0
X115.0Y-121.0
X115.0Y-130.0
X115.0Y-140.0
X115.0Y-150.0
X115.0Y-155.0
X115.0Y-160.0
X115.0Y-170.0
X115.0Y-180.0
X115.0Y-200.0
X115.0Y-210.0
X115.5Y-164.0
X116.25Y-102.75
X116.25Y-105.5
X116.25Y-108.25
X116.5Y-143.25
X116.75Y-140.5
X118.0Y-100.0
X118.5Y-98.5
X118.5Y-99.25
X118.75Y-107.25
X118.75Y-193.75
X121.0Y-137.0
X121.5Y-155.5
X121.75Y-159.0
X121.75Y-178.75
X123.25Y-195.2
X125.0Y-90.0
X125.0Y-92.0
X125.0Y-100.0
X125.0Y-110.0
X125.0Y-115.75
X125.0Y-122.0
X125.0Y-130.0
X125.0Y-150.0
X125.0Y-160.0
X125.0Y-167.5
X125.0Y-170.0
X125.0Y-180.0
X125.0Y-190.0
X125.0Y-200.0
X125.0Y-210.0
X125.5Y-140.5
X126.0Y-165.5
X127.0Y-185.5
X127.0Y-196.0
X128.0Y-164.5
X129.0Y-195.0
X129.0Y-198.0
X132.0Y-194.0
X132.0Y-197.0
X132.5Y-200.0
X133.0Y-166.5
X133.0Y-193.0
X134.0Y-130.0
X134.0Y-140.0
X134.0Y-147.75
X135.0Y-90.0
X135.0Y-92.0
X135.0Y-100.0
X135.0Y-104.0
X135.0Y-110.0
X135.0Y-121.25
X135.0Y-185.5
X135.0Y-190.0
X135.0Y-193.0
X135.0Y-194.0
X135.0Y-195.0
X135.0Y-196.0
X135.0Y-197.0
X135.0Y-198.0
X135.0Y-200.0
X135.0Y-210.0
X136.0Y-130.0
X136.0Y-140.0
X136.0Y-152.75
X136.0Y-160.0
X136.0Y-164.5
X136.0Y-165.5
X136.0Y-166.5
X136.0Y-167.5
X136.0Y-170.0
X136.0Y-180.0
X138.75Y-121.25
X141.0Y-116.5
X141.0Y-117.25
X141.0Y-118.0
X141.0Y-118.75
X141.0Y-119.5
X141.0Y-120.25
X141.0Y-121.25
X141.75Y-116.5
X141.75Y-121.25
X142.5Y-116.5
X142.5Y-121.25
X143.25Y-116.5
X143.25Y-121.25
X144.0Y-116.5
X144.0Y-117.25
X144.0Y-118.0
X144.0Y-118.75
X144.0Y-119.5
X144.0Y-120.25
X144.0Y-121.25
X144.25Y-200.0
X145.0Y-90.0
X145.0Y-110.0
X145.0Y-130.0
X145.0Y-140.0
X145.0Y-150.0
X145.0Y-160.0
X145.0Y-170.0
X145.0Y-180.0
X145.0Y-190.0
X145.0Y-210.0
X145.127Y-100.75
X145.5Y-118.75
X148.25Y-110.5
X148.75Y-160.25
X150.0Y-111.5
X151.75Y-110.5
X152.5Y-143.5
X152.75Y-183.0
X154.75Y-97.75
X154.75Y-184.25
X155.0Y-90.0
X155.0Y-91.75
X155.0Y-110.0
X155.0Y-150.0
X155.0Y-170.0
X155.0Y-190.0
X155.0Y-207.25
X155.0Y-210.25
X156.0Y-99.75
X156.25Y-140.0
X156.25Y-159.75
X157.0Y-108.75
X157.0Y-114.0
X157.0Y-186.0
X157.0Y-191.25
X161.0Y-108.75
X161.0Y-114.0
X161.0Y-186.0
X161.0Y-191.25
X164.5Y-89.25
X164.5Y-100.0
X165.0Y-110.0
X165.0Y-140.0
X165.0Y-150.0
X165.0Y-157.0
X165.0Y-159.25
X165.0Y-161.25
X165.0Y-166.5
X165.0Y-170.0
X165.0Y-190.0
X165.0Y-200.0
X165.0Y-210.25
X169.5Y-150.144
X175.0Y-90.0
X175.0Y-100.0
X175.0Y-110.0
X175.0Y-140.0
X175.0Y-150.0
X175.0Y-160.0
X175.0Y-170.0
X175.0Y-190.0
X175.0Y-200.0
X175.0Y-210.25
X178.5Y-162.0
X184.5Y-158.75
X185.0Y-90.0
X185.0Y-100.0
X185.0Y-110.0
X185.0Y-170.0
X185.0Y-190.0
X185.0Y-200.0
X185.0Y-210.25
X192.0Y-209.5
X194.25Y-159.0
X194.25Y-159.75
X194.25Y-160.5
X194.25Y-161.25
X194.25Y-162.0
X194.25Y-162.75
X194.25Y-163.5
X194.25Y-164.25
X194.25Y-165.0
X194.5Y-108.75
X194.5Y-114.0
X194.5Y-186.0
X194.5Y-191.25
X195.0Y-90.0
X195.0Y-100.0
X195.0Y-159.0
X195.0Y-165.0
X195.0Y-170.0
X195.0Y-200.0
X195.75Y-159.0
X195.75Y-165.0
X196.5Y-159.0
X196.5Y-165.0
X197.25Y-159.0
X197.25Y-165.0
X197.25Y-211.25
X198.0Y-159.0
X198.0Y-165.0
X198.5Y-108.75
X198.5Y-114.0
X198.5Y-186.0
X198.5Y-191.25
X198.75Y-159.0
X198.75Y-159.75
X198.75Y-160.5
X198.75Y-161.25
X198.75Y-162.0
X198.75Y-162.75
X198.75Y-163.5
X198.75Y-164.25
X198.75Y-165.0
X201.5Y-205.5
X202.0Y-204.5
X202.0Y-210.0
X203.0Y-203.5
X204.49Y-202.503
X205.0Y-90.0
X205.0Y-100.0
X205.0Y-110.0
X205.0Y-190.0
X205.0Y-200.0
X205.5Y-210.0
X207.725Y-100.0
X208.5Y-118.0
X211.25Y-200.0
X211.5Y-170.25
X211.5Y-180.0
X211.5Y-190.0
X211.5Y-193.0
X212.5Y-202.5
X213.5Y-202.5
X214.5Y-202.5
X215.0Y-90.0
X215.0Y-100.0
X215.0Y-130.0
X215.0Y-140.0
X215.0Y-150.0
X215.0Y-160.0
X215.0Y-210.0
X215.5Y-202.5
X216.5Y-202.5
X216.5Y-206.0
X217.5Y-193.0
X217.5Y-202.5
X217.5Y-207.5
X217.75Y-180.0
X218.0Y-170.0
X218.5Y-163.5
X219.0Y-190.0
X219.0Y-200.0
X219.5Y-158.0
X221.5Y-158.0
X221.5Y-163.5
X225.0Y-90.0
X225.0Y-100.0
X225.0Y-110.0
X225.0Y-130.0
X225.0Y-140.0
X225.0Y-150.0
X225.0Y-160.0
X225.0Y-170.0
X225.0Y-180.0
X225.0Y-190.0
X225.0Y-200.0
X225.0Y-210.0
X227.5Y-167.5
X229.0Y-162.5
X232.0Y-108.75
X232.0Y-114.0
X232.0Y-186.0
X232.0Y-191.25
X235.0Y-90.0
X235.0Y-100.0
X235.0Y-139.5
X235.0Y-150.0
X235.0Y-160.0
X235.0Y-170.0
X235.0Y-200.0
X235.0Y-210.0
X236.0Y-108.75
X236.0Y-114.0
X236.0Y-186.0
X236.0Y-191.25
X240.5Y-162.0
X245.0Y-90.0
X245.0Y-100.0
X245.0Y-110.0
X245.0Y-160.0
X245.0Y-170.0
X245.0Y-190.0
X245.0Y-200.0
X245.0Y-210.0
X255.0Y-90.0
X255.0Y-100.0
X255.0Y-110.0
X255.0Y-170.0
X255.0Y-190.0
X255.0Y-200.0
X255.0Y-210.0
X256.25Y-159.0
X256.25Y-159.75
X256.25Y-160.5
X256.25Y-161.25
X256.25Y-162.0
X256.25Y-162.75
X256.25Y-163.5
X256.25Y-164.25
X256.25Y-165.0
X257.0Y-159.0
X257.0Y-165.0
X257.75Y-159.0
X257.75Y-165.0
X258.5Y-159.0
X258.5Y-165.0
X259.25Y-159.0
X259.25Y-165.0
X260.0Y-159.0
X260.0Y-165.0
X260.75Y-159.0
X260.75Y-159.75
X260.75Y-160.5
X260.75Y-161.25
X260.75Y-162.0
X260.75Y-162.75
X260.75Y-163.5
X260.75Y-164.25
X260.75Y-165.0
X265.0Y-90.0
X265.0Y-100.0
X265.0Y-110.0
X265.0Y-190.0
X265.0Y-200.0
X265.0Y-210.0
X269.5Y-108.75
X269.5Y-114.0
X269.5Y-186.0
X269.5Y-191.25
X273.5Y-108.75
X273.5Y-114.0
X273.5Y-186.0
X273.5Y-191.25
X275.0Y-90.0
X275.0Y-100.0
X275.0Y-110.0
X275.0Y-130.0
X275.0Y-140.0
X275.0Y-150.0
X275.0Y-160.0
X275.0Y-170.0
X275.0Y-190.0
X275.0Y-200.0
X275.0Y-210.0
X276.5Y-185.0
X277.0Y-180.0
X281.25Y-186.25
X285.0Y-90.0
X285.0Y-100.0
X285.0Y-110.0
X285.0Y-120.0
X285.0Y-130.0
X285.0Y-140.0
X285.0Y-150.0
X285.0Y-160.0
X285.0Y-170.0
X285.0Y-180.0
X285.0Y-190.0
X285.0Y-200.0
X285.0Y-210.0
T2
X113.0Y-96.068
X113.0Y-98.568
X114.25Y-165.182
X114.25Y-167.682
X120.0Y-96.068
X120.0Y-98.568
X161.25Y-136.17
X161.25Y-146.33
X164.42Y-136.5
X174.58Y-136.5
X223.25Y-136.17
X223.25Y-146.33
X226.42Y-136.5
X236.58Y-136.5
T3
X67.725Y-139.5
X70.265Y-139.5
X90.0Y-178.725
X90.0Y-181.265
X92.725Y-117.5
X92.725Y-132.5
X95.265Y-117.5
X95.265Y-132.5
X100.735Y-105.5
X103.275Y-105.5
X105.0Y-178.725
X105.0Y-181.265
X120.0Y-178.725
X120.0Y-181.265
X171.235Y-163.5
X171.73Y-142.5
X173.775Y-163.5
X174.27Y-142.5
X210.73Y-142.5
X211.235Y-163.5
X213.27Y-142.5
X213.775Y-163.5
X233.235Y-163.5
X233.73Y-142.5
X235.775Y-163.5
X236.27Y-142.5
X272.73Y-142.5
X273.235Y-163.5
X275.27Y-142.5
X275.775Y-163.5
T4
X79.975Y-166.18
X79.975Y-168.72
X79.975Y-171.26
X79.975Y-173.8
X84.96Y-104.0
X86.19Y-188.5
X86.75Y-199.25
X86.75Y-203.75
X87.5Y-104.0
X88.49Y-141.89
X88.49Y-157.13
X88.73Y-188.5
X90.04Y-104.0
X91.03Y-141.89
X91.03Y-157.13
X91.27Y-188.5
X93.25Y-199.25
X93.25Y-203.75
X93.57Y-141.89
X93.57Y-157.13
X93.81Y-188.5
X96.11Y-141.89
X96.11Y-157.13
X98.65Y-141.89
X98.65Y-157.13
X101.19Y-141.89
X101.19Y-157.13
X101.75Y-199.25
X101.75Y-203.75
X102.46Y-188.0
X103.73Y-141.89
X103.73Y-157.13
X105.0Y-188.0
X106.27Y-141.89
X106.27Y-157.13
X107.54Y-188.0
X108.25Y-199.25
X108.25Y-203.75
X108.81Y-141.89
X108.81Y-157.13
X111.35Y-141.89
X111.35Y-157.13
X113.89Y-141.89
X113.89Y-157.13
X116.43Y-141.89
X116.43Y-157.13
X116.75Y-199.25
X116.75Y-203.75
X117.46Y-188.0
X118.97Y-141.89
X118.97Y-157.13
X120.0Y-188.0
X121.51Y-141.89
X121.51Y-157.13
X122.54Y-188.0
X123.25Y-199.25
X123.25Y-203.75
X124.05Y-141.89
X124.05Y-157.13
X158.19Y-90.75
X160.73Y-90.75
X163.27Y-90.75
X165.81Y-90.75
X171.73Y-157.935
X174.27Y-157.935
X199.225Y-96.5
X201.765Y-96.5
X207.725Y-96.5
X210.265Y-96.5
X210.73Y-157.935
X213.27Y-157.935
X220.225Y-96.5
X222.765Y-96.5
X228.725Y-96.5
X231.265Y-96.5
X233.73Y-157.935
X236.27Y-157.935
X272.73Y-157.935
X275.27Y-157.935
T5
X147.02Y-201.5
X207.98Y-201.5
X222.02Y-201.5
X282.98Y-201.5
T6
X57.078Y-122.455
X57.078Y-127.535
X79.88Y-110.0
X95.12Y-110.0
T7
X72.5Y-120.3
X72.5Y-125.0
X72.5Y-129.7
X85.0Y-120.3
X85.0Y-125.0
X85.0Y-129.7
X185.55Y-161.89
X191.0Y-161.89
X196.45Y-161.89
X247.55Y-161.89
X253.0Y-161.89
X258.45Y-161.89
T8
X179.5Y-147.3
X179.5Y-152.7
X241.5Y-147.3
X241.5Y-152.7
T9
X159.0Y-111.43
X159.0Y-121.43
X159.0Y-178.57
X159.0Y-188.57
X196.5Y-111.43
X196.5Y-121.43
X196.5Y-178.57
X196.5Y-188.57
X234.0Y-111.43
X234.0Y-121.43
X234.0Y-178.57
X234.0Y-188.57
X271.5Y-111.43
X271.5Y-121.43
X271.5Y-178.57
X271.5Y-188.57
T10
X57.5Y-106.4
X57.5Y-113.6
M30
